<?xml version="1.0" standalone="no"?>
<!DOCTYPE svg PUBLIC "-//W3C//DTD SVG 20010904//EN"
 "http://www.w3.org/TR/2001/REC-SVG-20010904/DTD/svg10.dtd">
<svg version="1.0" xmlns="http://www.w3.org/2000/svg"
 width="1024.000000pt" height="1024.000000pt" viewBox="0 0 1024.000000 1024.000000"
 preserveAspectRatio="xMidYMid meet">
<metadata>
Created by potrace 1.11, written by Peter Selinger 2001-2013
</metadata>
<g transform="translate(0.000000,1024.000000) scale(0.100000,-0.100000)"
fill="#000000" stroke="none">
<path d="M2465 9729 c-398 -22 -721 -83 -933 -177 -368 -162 -677 -471 -843
-842 -81 -181 -140 -458 -171 -810 -19 -212 -19 -5348 0 -5560 31 -352 90
-629 171 -810 166 -371 475 -680 843 -842 220 -98 528 -154 963 -178 258 -14
4992 -14 5250 0 435 24 743 80 963 178 368 162 677 471 843 842 81 181 140
458 171 810 19 212 19 5348 0 5560 -41 456 -115 739 -256 977 -209 350 -563
632 -928 738 -208 60 -463 97 -793 115 -228 12 -5053 11 -5280 -1z m3994
-2290 c657 -112 1101 -615 1138 -1289 l6 -105 -467 0 -466 0 0 65 c0 100 -33
240 -79 334 -64 132 -164 214 -308 251 -67 18 -220 20 -295 4 -129 -27 -251
-116 -311 -226 -65 -122 -86 -319 -47 -444 65 -210 300 -384 760 -564 485
-190 819 -423 995 -695 166 -257 239 -591 206 -939 -30 -301 -132 -532 -319
-720 -204 -206 -466 -329 -800 -377 -177 -26 -460 -23 -626 5 -540 94 -938
376 -1146 814 -78 164 -122 346 -136 561 l-7 106 466 0 466 0 5 -32 c3 -18 7
-71 10 -118 21 -316 161 -516 411 -585 92 -25 322 -31 409 -11 235 55 345 236
333 546 -5 142 -33 243 -91 333 -83 130 -277 249 -646 397 -496 199 -824 424
-1021 700 -106 148 -173 310 -205 494 -25 141 -15 427 19 561 74 292 245 529
508 704 331 222 790 307 1238 230z m-2559 -2349 l0 -2320 -465 0 -465 0 0
2320 0 2320 465 0 465 0 0 -2320z"/>
</g>
</svg>
